<svg width="15" height="16" viewBox="0 0 15 16" fill="none" xmlns="http://www.w3.org/2000/svg">
<g clip-path="url(#clip0_12_867)">
<path d="M13.125 7.25C13.125 11.625 7.5 15.375 7.5 15.375C7.5 15.375 1.875 11.625 1.875 7.25C1.875 5.75816 2.46763 4.32742 3.52252 3.27252C4.57742 2.21763 6.00816 1.625 7.5 1.625C8.99184 1.625 10.4226 2.21763 11.4775 3.27252C12.5324 4.32742 13.125 5.75816 13.125 7.25Z" stroke="#07000B" stroke-width="2" stroke-linecap="round" stroke-linejoin="round"/>
<path d="M7.5 9.125C8.53553 9.125 9.375 8.28553 9.375 7.25C9.375 6.21447 8.53553 5.375 7.5 5.375C6.46447 5.375 5.625 6.21447 5.625 7.25C5.625 8.28553 6.46447 9.125 7.5 9.125Z" stroke="#07000B" stroke-width="2" stroke-linecap="round" stroke-linejoin="round"/>
</g>
<defs>
<clipPath id="clip0_12_867">
<rect width="15" height="16" fill="white"/>
</clipPath>
</defs>
</svg>
