<svg width="23" height="28" viewBox="0 0 23 28" fill="none" xmlns="http://www.w3.org/2000/svg">
<path d="M4.92857 6.96053C4.92857 3.15399 7.85491 0 11.5 0C15.0938 0 18.0714 3.15399 18.0714 6.96053C18.0714 10.8214 15.0938 13.9211 11.5 13.9211C7.85491 13.9211 4.92857 10.8214 4.92857 6.96053ZM16.4286 6.96053C16.4286 4.07843 14.221 1.74013 11.5 1.74013C8.72768 1.74013 6.57143 4.07843 6.57143 6.96053C6.57143 9.84262 8.72768 12.1809 11.5 12.1809C14.221 12.1809 16.4286 9.84262 16.4286 6.96053ZM13.1429 16.5312C13.5536 16.5312 13.9643 16.9663 13.9643 17.4013C13.9643 17.8907 13.5536 18.2714 13.1429 18.2714H12.6295L13.6562 21.5341L15.5558 17.4557C19.7143 17.9451 23 21.6429 23 26.2107C23 27.1352 22.2812 27.8421 21.4085 27.8421H1.54018C0.667411 27.8421 0 27.1352 0 26.2107C0 21.6429 3.23438 17.9451 7.39286 17.4557L9.29241 21.5341L10.3192 18.2714H9.8058C9.39509 18.2714 8.98438 17.8907 8.98438 17.4013C8.98438 16.9663 9.39509 16.5312 9.8058 16.5312H13.1429ZM11.5 26.102L12.5781 23.7637L11.5 20.1747L10.3705 23.7637L11.5 26.102ZM21.3058 26.102C21.3058 22.948 19.2522 20.229 16.4799 19.4133L13.2969 26.102H21.3058ZM9.65179 26.102L6.46875 19.4133C3.69643 20.229 1.64286 22.948 1.64286 26.102H9.65179Z" fill="#D99F4E"/>
</svg>
